<svg xmlns="http://www.w3.org/2000/svg" id="logo__header" width="170" height="87.932" viewBox="0 0 170 87.932">
    <defs>
        <style>
            .cls-1{fill:#231f20}.cls-2{fill:#ee3124}.cls-3{fill:none}
        </style>
    </defs>
    <g id="YRDSB-InspireLearning" transform="translate(0 2.314)">
        <g id="Layer_2" data-name="Layer 2">
            <path id="Path_559" d="M96.191 47.2c1.223-5.681-3.924-10.882-3.924-10.882l-1.623-1.968c-2.475-3.277-3.829-7.424-3.136-10.606a13.859 13.859 0 0 1 .619-1.7C89.718 18 106.529 6.65 106.529 6.65 101.13 11.723 92.49 17.2 95.053 23.008c2.531 5.734 8 8.485 9.864 15.04a16.616 16.616 0 0 1 .354 3.058c.2 8.131-23.687 23.839-25.412 25.278-.17.138-.173-.057.707-.735 4.03-3.139 13.989-11.313 15.5-17.811z" class="cls-1" data-name="Path 559" transform="translate(-51.558 -4.299)"/>
            <path id="Path_560" d="M152.9 54.478a7.3 7.3 0 1 0-7.3-7.3 7.3 7.3 0 0 0 7.3 7.3z" class="cls-2" data-name="Path 560" transform="translate(-94.16 -25.774)"/>
            <path id="Path_561" d="M143.136 49.828c1.1-4.9-2.043-13.99-14.265-14.958 0 0 11.536 11.561-10.252 27.364-3.585 2.6-7.452 6.6-11.119 9.956-5.472 5.01-11.005 10.253-13.08 12.165-.622.573-.212.325-.212.325s15.711-11.755 19.95-14.99c8.942-6.816 26.472-8.746 28.978-19.862z" class="cls-2" data-name="Path 561" transform="translate(-60.842 -22.542)"/>
            <path id="Path_562" d="M148.19 132.039a28.986 28.986 0 0 1 3.1-2.252c2.648-1.672 6.339-3.574 7.909-3.327.537.088-.619 14.036 11.228 17 1.372.354-6.639 1.22-11.313-2.174-2.089-1.512-7-7.14-10.924-9.247z" class="cls-2" data-name="Path 562" transform="translate(-95.837 -81.779)"/>
            <path id="Path_563" d="M54.613 146.2c.495-.1.785-.163.764-.081-20.134 5.607-40.366 10.214-49.031 7.859-2.9-.788-4.886-2.075-5.9-3.822-3.376-5.833 11.84-18.476 24.747-25.589.474-.262.354-.06.332-.042C8.222 135 3.227 143.06 5.73 147.363c.555.958 1.789 1.7 3.663 2.213 7.265 1.976 26.907.195 45.22-3.376z" class="cls-1" data-name="Path 563" transform="translate(.029 -80.489)"/>
            <path id="Path_564" d="M254.956 59.681c-18.829 16.263-26.077 20.078-29.039 21.587-1.768.9-7.4 3.246-10.351 3.67a18.609 18.609 0 0 1-9.715-1.343c13.455-2.21 29.181-8.029 49.109-24.08 0 0 .488-.407.53-.354s-.534.52-.534.52z" class="cls-2" data-name="Path 564" transform="translate(-133.143 -38.264)"/>
            <path id="Path_565" d="M132.576 229.232v-3.847h.354c.912 0 1.188.849 1.188 1.944 0 1.163-.3 1.9-1.255 1.9zm-1.312.979h1.768c1.8 0 2.439-1.616 2.439-2.952 0-1.414-.686-2.85-2.507-2.85h-1.714z" class="cls-1" data-name="Path 565" transform="translate(-84.877 -145.138)"/>
            <path id="Path_566" d="M150.78 224.4h1.312v5.805h-1.312z" class="cls-1" data-name="Path 566" transform="translate(-97.507 -145.132)"/>
            <path id="Path_567" d="M162.079 228.432a1.986 1.986 0 0 0 1.223.612.491.491 0 0 0 .534-.484c0-.849-1.807-1.485-1.807-2.892a1.546 1.546 0 0 1 1.662-1.478 2.545 2.545 0 0 1 1.262.354v1.085a2.258 2.258 0 0 0-1.117-.414c-.286 0-.534.159-.534.4 0 .689 1.87 1.527 1.87 2.9a1.612 1.612 0 0 1-1.676 1.623 2.673 2.673 0 0 1-1.414-.46z" class="cls-1" data-name="Path 567" transform="translate(-104.783 -144.996)"/>
            <path id="Path_568" d="M178.582 225.4h-1.322v-1h3.96v1h-1.326v4.8h-1.312z" class="cls-1" data-name="Path 568" transform="translate(-114.634 -145.132)"/>
            <path id="Path_569" d="M195.4 224.4h1.891c1.191 0 1.867.672 1.867 1.623a1.362 1.362 0 0 1-.972 1.361c.516.286.707 1.587 1.206 2.828h-1.368l-.311-1.089c-.354-1.259-.453-1.361-1-1.361v2.45H195.4zm1.729 2.351a.64.64 0 0 0 .707-.707c0-.46-.247-.658-.735-.658h-.392v1.351z" class="cls-1" data-name="Path 569" transform="translate(-126.366 -145.132)"/>
            <path id="Path_570" d="M213.69 224.4H215v5.805h-1.31z" class="cls-1" data-name="Path 570" transform="translate(-138.194 -145.132)"/>
            <path id="Path_571" d="M228.628 229.712a2.026 2.026 0 0 1-1.35.435c-1.382 0-2.347-1.138-2.347-2.917 0-1.831.923-3.03 2.347-3.03a2.849 2.849 0 0 1 1.308.322v1.114a1.956 1.956 0 0 0-.993-.336c-.757 0-1.326.583-1.326 1.853s.442 1.9 1.255 1.9a1.994 1.994 0 0 0 1.107-.467z" class="cls-1" data-name="Path 571" transform="translate(-145.464 -145.003)"/>
            <path id="Path_572" d="M243.206 225.4h-1.326v-1h3.963v1h-1.326v4.8h-1.312z" class="cls-1" data-name="Path 572" transform="translate(-156.427 -145.132)"/>
            <path id="Path_573" d="M272.4 228.432a1.994 1.994 0 0 0 1.223.612.491.491 0 0 0 .534-.484c0-.849-1.807-1.485-1.807-2.892a1.546 1.546 0 0 1 1.662-1.478 2.545 2.545 0 0 1 1.262.354v1.085a2.258 2.258 0 0 0-1.117-.414c-.286 0-.534.159-.534.4 0 .689 1.87 1.527 1.87 2.9a1.612 1.612 0 0 1-1.676 1.619 2.673 2.673 0 0 1-1.414-.46z" class="cls-1" data-name="Path 573" transform="translate(-176.133 -144.996)"/>
            <path id="Path_574" d="M291.774 229.712a2.022 2.022 0 0 1-1.35.435c-1.382 0-2.344-1.138-2.344-2.917 0-1.831.919-3.03 2.344-3.03a2.828 2.828 0 0 1 1.308.322v1.114a1.945 1.945 0 0 0-.993-.336c-.757 0-1.326.583-1.326 1.853s.442 1.9 1.259 1.9a1.994 1.994 0 0 0 1.1-.467z" class="cls-1" data-name="Path 574" transform="translate(-186.307 -145.003)"/>
            <path id="Path_575" d="M306.26 224.4h1.322v2.379h1.46V224.4h1.312v5.805h-1.312v-2.411h-1.46v2.425h-1.308z" class="cls-1" data-name="Path 575" transform="translate(-198.065 -145.132)"/>
            <path id="Path_576" d="M326.626 227.163c0-1.138.23-1.835.947-1.835.785 0 .944.831.944 1.835 0 1.389-.332 1.842-.944 1.842-.727 0-.947-.686-.947-1.842zm-1.336-.053c0 2.174 1.16 3.033 2.284 3.033.986 0 2.28-.707 2.28-2.973 0-2.174-1.2-2.98-2.28-2.98s-2.284.951-2.284 2.92z" class="cls-1" data-name="Path 576" transform="translate(-210.373 -144.996)"/>
            <path id="Path_577" d="M346.343 227.163c0-1.138.23-1.835.947-1.835.785 0 .947.831.947 1.835 0 1.389-.332 1.842-.947 1.842-.724 0-.947-.686-.947-1.842zm-1.333-.053c0 2.174 1.156 3.033 2.28 3.033.99 0 2.284-.707 2.284-2.973 0-2.174-1.2-2.98-2.284-2.98s-2.291.951-2.291 2.92z" class="cls-1" data-name="Path 577" transform="translate(-223.121 -144.996)"/>
            <path id="Path_578" d="M365.424 224.4h1.308v4.766h2.121v1.039h-3.433z" class="cls-1" data-name="Path 578" transform="translate(-236.327 -145.132)"/>
            <path id="Path_579" d="M394.86 224.4h1.966a1.513 1.513 0 0 1 1.708 1.471 1.269 1.269 0 0 1-.785 1.188 1.506 1.506 0 0 1 .972 1.442 1.719 1.719 0 0 1-1.884 1.7h-1.977zm1.736 4.865c.573 0 .813-.29.813-.781a.707.707 0 0 0-.725-.792h-.513v1.573zm-.141-2.514c.509 0 .767-.23.767-.707s-.24-.707-.767-.707h-.283v1.414z" class="cls-1" data-name="Path 579" transform="translate(-255.368 -145.132)"/>
            <path id="Path_580" d="M414.016 227.163c0-1.138.23-1.835.947-1.835.785 0 .944.831.944 1.835 0 1.389-.332 1.842-.944 1.842-.724 0-.947-.686-.947-1.842zm-1.336-.053c0 2.174 1.16 3.033 2.284 3.033.986 0 2.284-.707 2.284-2.973 0-2.174-1.2-2.98-2.284-2.98s-2.284.951-2.284 2.92z" class="cls-1" data-name="Path 580" transform="translate(-266.893 -144.996)"/>
            <path id="Path_581" d="M433.153 227.987l.456-2.121h.018l.449 2.121zm-1.743 2.153h1.269l.279-1.213h1.308l.272 1.213h1.273l-1.52-5.841h-1.365z" class="cls-1" data-name="Path 581" transform="translate(-279.007 -145.067)"/>
            <path id="Path_582" d="M451.882 226.738v-1.351h.4c.488 0 .739.2.739.658a.643.643 0 0 1-.707.707zm-1.312 3.454h1.312v-2.45c.548 0 .636.1 1 1.361l.315 1.089h1.365c-.484-1.234-.689-2.535-1.206-2.828a1.357 1.357 0 0 0 .976-1.361c0-.951-.679-1.623-1.87-1.623h-1.892z" class="cls-1" data-name="Path 582" transform="translate(-291.426 -145.119)"/>
            <path id="Path_583" d="M470.072 229.232v-3.847h.385c.916 0 1.188.849 1.188 1.944 0 1.163-.3 1.9-1.255 1.9zm-1.308.979h1.768c1.8 0 2.436-1.616 2.436-2.952 0-1.414-.686-2.85-2.507-2.85h-1.711z" class="cls-1" data-name="Path 583" transform="translate(-303.178 -145.138)"/>
            <path id="Path_584" d="M229.868 148.612l-4.518-6.442h4.861l2.217 3.854 2.167-3.854h3.988l-4.635 6.6v5.027h-4.08z" class="cls-2" data-name="Path 584" transform="translate(-145.739 -91.952)"/>
            <path id="Path_585" d="M258.016 153.829a1.768 1.768 0 1 1 1.768 1.736 1.669 1.669 0 0 1-1.768-1.736zm-3.535 0c0 2.2 1.5 4.653 5.335 4.653 3.574 0 5.264-2.27 5.264-4.653 0-2.178-1.467-4.649-5.3-4.649-3.705 0-5.307 2.337-5.307 4.649z" class="cls-2" data-name="Path 585" transform="translate(-164.572 -96.484)"/>
            <path id="Path_586" d="M290.162 149.322v2.4h.035c.629-1.679 1.637-2.549 2.881-2.549a4.324 4.324 0 0 1 2.181.707l-1.57 3.571a2.205 2.205 0 0 0-1.517-.749c-.87 0-1.481.852-1.669 1.895v3.737h-3.533v-9.008z" class="cls-2" data-name="Path 586" transform="translate(-185.591 -96.478)"/>
            <path id="Path_587" d="M311.52 142.17h3.535v5.73l2.913-3.1h4.384l-3.769 3.836 4.3 5.162h-4.433l-3.35-4.158h-.035v4.154h-3.535z" class="cls-2" data-name="Path 587" transform="translate(-201.471 -91.952)"/>
            <path id="Path_588" d="M337.465 175.873H339c1.662 0 2.379.463 1.994 2.227a2.687 2.687 0 0 1-2.644 2.273h-1.874zm-.085 5.416c1.386 0 2.584.113 2.355 1.7a13.474 13.474 0 0 0-.354 3.917h1.153l.028-.145c-.53-.318 0-2.418.1-2.991.308-1.5.354-2.56-1-2.906v-.032a3.488 3.488 0 0 0 2.408-2.828c.527-2.432-.866-3.065-3.1-3.065h-2.37l-2.6 11.968h1.061l1.22-5.618z" class="cls-1" data-name="Path 588" transform="translate(-216.008 -113.147)"/>
            <path id="Path_589" d="M366.168 187.057c.223-1.029.8-2.924 2.259-2.924 1.531 0 1.248 1.817 1.008 2.924zm4.225-.078c.354-1.662.308-3.659-1.768-3.659-2.475 0-3.2 2.867-3.585 4.628-.4 1.821-.884 4.6 1.619 4.6 1.831 0 2.828-1.485 3.182-3.1h-.923c-.311 1.061-.739 2.284-2.072 2.284-1.853 0-1.1-2.733-.852-3.864h4.206z" class="cls-1" data-name="Path 589" transform="translate(-235.874 -118.565)"/>
            <path id="Path_590" d="M392.782 184.133c2.054 0 1.312 2.606 1 4.023-.251 1.16-.788 3.56-2.521 3.578-1.81 0-1.308-2.475-1.039-3.705.234-1.05.884-3.896 2.56-3.896zm1.831.205h-.032a1.72 1.72 0 0 0-1.768-1.018c-2.443 0-3.182 3.037-3.535 4.709-.4 1.828-.849 4.518 1.591 4.518a2.828 2.828 0 0 0 2.075-.845h.067c-.318 1.227-.484 2.828-2.439 2.828-.757-.032-1.435-.385-1.308-1.181h-.94c-.24 1.389.753 1.994 2.047 1.994 2.121 0 3.069-1.294 3.486-3.2l1.874-8.58h-.94z" class="cls-1" data-name="Path 590" transform="translate(-251.119 -118.567)"/>
            <path id="Path_591" d="M417.76 186.933l1.9-8.764h.94l-1.9 8.782zm2.206-10.444l.329-1.51h1.085l-.329 1.51z" class="cls-1" data-name="Path 591" transform="translate(-270.178 -113.172)"/>
            <path id="Path_592" d="M437.667 191.708c-1.934 0-1.255-2.687-.976-3.991.265-1.209.884-3.61 2.577-3.61 1.937 0 1.446 2.418 1.149 3.783s-.845 3.818-2.75 3.818zm-.159.813c2.588 0 3.422-2.659 3.853-4.646.417-1.923.707-4.6-1.8-4.6s-3.373 2.432-3.8 4.405c-.445 2.056-.986 4.842 1.747 4.842z" class="cls-1" data-name="Path 592" transform="translate(-281.586 -118.539)"/>
            <path id="Path_593" d="M462.926 192.357H462l1.888-8.764h.94l-.184.859h.032a3.1 3.1 0 0 1 2.266-1.082 1.557 1.557 0 0 1 1.651 2.036l-1.513 6.968h-.94l1.386-6.364c.216-1 .311-1.814-.923-1.814a2.437 2.437 0 0 0-2.273 1.718z" class="cls-1" data-name="Path 593" transform="translate(-298.815 -118.597)"/>
            <path id="Path_594" d="M194.3 5.947c0 .028 0 .074.078.057.283-.071 1.414-.255 1.414-.255 21.664-4.08 42.1-3.475 50.477-.5 1.842.654 4.037 2.694 4.013 4.787-.053 4-4.1 7.757-9.7 12.073 0 .057.021.053.074.035 7.972-4.737 12.077-6.862 14.269-10.087a5.959 5.959 0 0 0 .58-6.2c-.884-1.831-2.775-3.277-5.628-4.288-9.34-3.316-32.419-1.149-55.547 4.349a.064.064 0 0 0-.028.028z" class="cls-2" data-name="Path 594" transform="translate(-125.678)"/>
        </g>
    </g>
    <path id="Rectangle_982" d="M0 0h170v87.932H0z" class="cls-3" data-name="Rectangle 982"/>
</svg>
